<svg id="Слой_1" data-name="Слой 1" xmlns="http://www.w3.org/2000/svg" viewBox="0 0 1146.95068 375.14062">
  <defs>
    <style>
      .cls-1 {
        fill: #6558a0;
      }

      .cls-2 {
        fill: #4d59a1;
      }

      .cls-3 {
        fill: #4d5b9d;
      }

      .cls-4 {
        fill: #e2e2e2;
      }
    </style>
  </defs>
  <title>DoIT_4</title>
  <g>
    <path class="cls-1" d="M327.11534,135.98474L310.5827,164.62012h53.627A17.72926,17.72926,0,0,1,381.939,182.34937V371.89086a17.72926,17.72926,0,0,1-17.72926,17.72926H194.82629a24.50411,24.50411,0,0,0-21.22118,12.25205L159.0282,427.12012H401.70971A17.72926,17.72926,0,0,0,419.439,409.39086V144.84937a17.72926,17.72926,0,0,0-17.72926-17.72926H342.46933A17.72925,17.72925,0,0,0,327.11534,135.98474Z" transform="translate(-19.43896 -89.60449)"/>
    <path class="cls-2" d="M56.939,371.89086V182.34937a17.72926,17.72926,0,0,1,17.72926-17.72926H246.31084A25.71026,25.71026,0,0,0,268.57658,151.765l14.22872-24.64487H37.16822A17.72926,17.72926,0,0,0,19.439,144.84937V409.39086a17.72926,17.72926,0,0,0,17.72926,17.72926h62.196a17.72926,17.72926,0,0,0,15.354-8.86463l16.53264-28.63537H74.66822A17.72926,17.72926,0,0,1,56.939,371.89086Z" transform="translate(-19.43896 -89.60449)"/>
    <rect class="cls-1" x="102.15842" y="162.51562" width="50" height="50" rx="23.97925" ry="23.97925"/>
    <rect class="cls-1" x="175" y="162.51562" width="50" height="50" rx="23.97925" ry="23.97925"/>
    <rect class="cls-1" x="247.84158" y="162.51562" width="50" height="50" rx="23.97925" ry="23.97925"/>
    <path class="cls-1" d="M218.314,427.09927L137.2782,464.74512l34.64646-60.00943a13.35192,13.35192,0,0,1,20.9564-2.813Z" transform="translate(-19.43896 -89.60449)"/>
    <path class="cls-3" d="M223.481,127.25033L304.5168,89.60449l-35.80257,62.01187a11.56837,11.56837,0,0,1-18.157,2.43722Z" transform="translate(-19.43896 -89.60449)"/>
  </g>
  <g>
    <path class="cls-4" d="M466.46484,388.97314V161.40967h80.61523q121.23926,0,121.24023,110.9248,0,53.165-33.08691,84.90039-33.08789,31.74023-88.15332,31.73828H466.46484Zm51.25684-185.82764V347.396H543.1123q33.3252,0,52.28906-19.99512,18.96094-19.99512,18.96387-54.43164,0-32.52832-18.80469-51.17773-18.80566-18.64453-52.76562-18.646H517.72168Z" transform="translate(-19.43896 -89.60449)"/>
    <path class="cls-4" d="M778.21875,392.93994q-40.626,0-63.873-22.77148-23.25-22.76953-23.248-61.81055,0-40.30664,24.12109-63.08008,24.12012-22.76953,65.22266-22.77148,40.46484,0,63.47656,22.77148,23.00684,22.77393,23.00977,60.22363,0,40.46631-23.72461,63.95215Q819.47852,392.94238,778.21875,392.93994Zm1.26953-132.03125q-17.77441,0-27.61133,12.21973-9.84229,12.22119-9.83984,34.59473,0,46.81494,37.76953,46.81445,36.02051,0,36.02246-48.084Q815.8291,260.91016,779.48828,260.90869Z" transform="translate(-19.43896 -89.60449)"/>
    <path class="cls-4" d="M955.24512,388.97314H903.9873V161.40967h51.25781V388.97314Z" transform="translate(-19.43896 -89.60449)"/>
    <path class="cls-4" d="M1166.38965,203.14551h-64.90527V388.97314h-51.416V203.14551H985.48047V161.40967h180.90918v41.73584Z" transform="translate(-19.43896 -89.60449)"/>
  </g>
</svg>
